REM DIRINDEX 1\2,1\3,1\4
REM DIRNAME folder01,folder02,folder03,folder04
TITLE ""
FILE "072 072_Lesson 6_TOEFL_3900.mp3" MP3
  TRACK 01 AUDIO
    TITLE "4:cjc151_3117"
    INDEX 01 00:00:00
  TRACK 02 AUDIO
    TITLE "0:"
    INDEX 01 00:01:48
  TRACK 03 AUDIO
    TITLE "2:cjc151_3118"
    INDEX 01 00:02:28
  TRACK 04 AUDIO
    TITLE "0:"
    INDEX 01 00:03:43
  TRACK 05 AUDIO
    TITLE "3:cjc151_3119"
    INDEX 01 00:05:18
  TRACK 06 AUDIO
    TITLE "0:"
    INDEX 01 00:08:34
  TRACK 07 AUDIO
    TITLE "2:cjc151_3120"
    INDEX 01 00:10:10
  TRACK 08 AUDIO
    TITLE "0:"
    INDEX 01 00:11:17
  TRACK 09 AUDIO
    TITLE "3:cjc151_3121"
    INDEX 01 00:12:67
  TRACK 10 AUDIO
    TITLE "0:"
    INDEX 01 00:16:48
  TRACK 11 AUDIO
    TITLE "2:cjc151_3122"
    INDEX 01 00:18:25
  TRACK 12 AUDIO
    TITLE "0:"
    INDEX 01 00:19:50
  TRACK 13 AUDIO
    TITLE "3:cjc151_3123"
    INDEX 01 00:21:25
  TRACK 14 AUDIO
    TITLE "0:"
    INDEX 01 00:25:54
  TRACK 15 AUDIO
    TITLE "2:cjc151_3124"
    INDEX 01 00:27:34
  TRACK 16 AUDIO
    TITLE "0:"
    INDEX 01 00:28:47
  TRACK 17 AUDIO
    TITLE "3:cjc151_3125"
    INDEX 01 00:30:26
  TRACK 18 AUDIO
    TITLE "0:"
    INDEX 01 00:33:48
  TRACK 19 AUDIO
    TITLE "2:cjc151_3126"
    INDEX 01 00:35:25
  TRACK 20 AUDIO
    TITLE "0:"
    INDEX 01 00:36:50
  TRACK 21 AUDIO
    TITLE "3:cjc151_3127"
    INDEX 01 00:38:30
  TRACK 22 AUDIO
    TITLE "0:"
    INDEX 01 00:42:51
  TRACK 23 AUDIO
    TITLE "2:cjc151_3128"
    INDEX 01 00:44:30
  TRACK 24 AUDIO
    TITLE "0:"
    INDEX 01 00:45:45
  TRACK 25 AUDIO
    TITLE "3:cjc151_3129"
    INDEX 01 00:47:27
  TRACK 26 AUDIO
    TITLE "0:"
    INDEX 01 00:50:62
  TRACK 27 AUDIO
    TITLE "2:cjc151_3130"
    INDEX 01 00:52:39
  TRACK 28 AUDIO
    TITLE "0:"
    INDEX 01 00:53:47
  TRACK 29 AUDIO
    TITLE "3:cjc151_3131"
    INDEX 01 00:55:26
  TRACK 30 AUDIO
    TITLE "0:"
    INDEX 01 00:58:34
  TRACK 31 AUDIO
    TITLE "2:cjc151_3132"
    INDEX 01 01:00:13
  TRACK 32 AUDIO
    TITLE "0:"
    INDEX 01 01:01:13
  TRACK 33 AUDIO
    TITLE "3:cjc151_3133"
    INDEX 01 01:02:65
  TRACK 34 AUDIO
    TITLE "0:"
    INDEX 01 01:06:12
  TRACK 35 AUDIO
    TITLE "2:cjc151_3134"
    INDEX 01 01:07:68
  TRACK 36 AUDIO
    TITLE "0:"
    INDEX 01 01:09:12
  TRACK 37 AUDIO
    TITLE "3:cjc151_3135"
    INDEX 01 01:10:63
  TRACK 38 AUDIO
    TITLE "0:"
    INDEX 01 01:15:03
  TRACK 39 AUDIO
    TITLE "2:cjc151_3136"
    INDEX 01 01:16:56
  TRACK 40 AUDIO
    TITLE "0:"
    INDEX 01 01:17:65
  TRACK 41 AUDIO
    TITLE "3:cjc151_3137"
    INDEX 01 01:19:46
  TRACK 42 AUDIO
    TITLE "0:"
    INDEX 01 01:22:66
  TRACK 43 AUDIO
    TITLE "2:cjc151_3138"
    INDEX 01 01:24:51
  TRACK 44 AUDIO
    TITLE "0:"
    INDEX 01 01:27:06
  TRACK 45 AUDIO
    TITLE "3:cjc151_3139"
    INDEX 01 01:28:59
  TRACK 46 AUDIO
    TITLE "0:"
    INDEX 01 01:33:40
  TRACK 47 AUDIO
    TITLE "2:cjc151_3140"
    INDEX 01 01:35:18
  TRACK 48 AUDIO
    TITLE "0:"
    INDEX 01 01:36:19
  TRACK 49 AUDIO
    TITLE "3:cjc151_3141"
    INDEX 01 01:37:69
  TRACK 50 AUDIO
    TITLE "0:"
    INDEX 01 01:42:06
  TRACK 51 AUDIO
    TITLE "2:cjc151_3142"
    INDEX 01 01:43:58
  TRACK 52 AUDIO
    TITLE "0:"
    INDEX 01 01:44:52
  TRACK 53 AUDIO
    TITLE "3:cjc151_3143"
    INDEX 01 01:46:31
  TRACK 54 AUDIO
    TITLE "0:"
    INDEX 01 01:50:06
  TRACK 55 AUDIO
    TITLE "2:cjc151_3144"
    INDEX 01 01:51:56
  TRACK 56 AUDIO
    TITLE "0:"
    INDEX 01 01:53:55
  TRACK 57 AUDIO
    TITLE "3:cjc151_3145"
    INDEX 01 01:55:38
  TRACK 58 AUDIO
    TITLE "0:"
    INDEX 01 01:58:29
  TRACK 59 AUDIO
    TITLE "2:cjc151_3146"
    INDEX 01 02:00:08
  TRACK 60 AUDIO
    TITLE "0:"
    INDEX 01 02:01:17
  TRACK 61 AUDIO
    TITLE "3:cjc151_3147"
    INDEX 01 02:02:71
  TRACK 62 AUDIO
    TITLE "0:"
    INDEX 01 02:06:57
  TRACK 63 AUDIO
    TITLE "2:cjc151_3148"
    INDEX 01 02:08:35
  TRACK 64 AUDIO
    TITLE "0:"
    INDEX 01 02:09:50
  TRACK 65 AUDIO
    TITLE "3:cjc151_3149"
    INDEX 01 02:11:27
  TRACK 66 AUDIO
    TITLE "0:"
    INDEX 01 02:15:21
  TRACK 67 AUDIO
    TITLE "2:cjc151_3150"
    INDEX 01 02:17:00
  TRACK 68 AUDIO
    TITLE "0:"
    INDEX 01 02:18:27
  TRACK 69 AUDIO
    TITLE "3:cjc151_3151"
    INDEX 01 02:20:09
  TRACK 70 AUDIO
    TITLE "0:"
    INDEX 01 02:24:40
  TRACK 71 AUDIO
    TITLE "2:cjc151_3152"
    INDEX 01 02:26:17
  TRACK 72 AUDIO
    TITLE "0:"
    INDEX 01 02:27:16
  TRACK 73 AUDIO
    TITLE "3:cjc151_3153"
    INDEX 01 02:29:13
  TRACK 74 AUDIO
    TITLE "0:"
    INDEX 01 02:32:51
  TRACK 75 AUDIO
    TITLE "2:cjc151_3154"
    INDEX 01 02:34:30
  TRACK 76 AUDIO
    TITLE "0:"
    INDEX 01 02:35:30
  TRACK 77 AUDIO
    TITLE "3:cjc151_3155"
    INDEX 01 02:37:07
  TRACK 78 AUDIO
    TITLE "0:"
    INDEX 01 02:40:64
  TRACK 79 AUDIO
    TITLE "2:cjc151_3156"
    INDEX 01 02:42:43
  TRACK 80 AUDIO
    TITLE "0:"
    INDEX 01 02:43:35
  TRACK 81 AUDIO
    TITLE "3:cjc151_3157"
    INDEX 01 02:45:12
  TRACK 82 AUDIO
    TITLE "0:"
    INDEX 01 02:48:26
  TRACK 83 AUDIO
    TITLE "2:cjc151_3158"
    INDEX 01 02:50:06
  TRACK 84 AUDIO
    TITLE "0:"
    INDEX 01 02:50:74
  TRACK 85 AUDIO
    TITLE "3:cjc151_3159"
    INDEX 01 02:52:56
  TRACK 86 AUDIO
    TITLE "0:"
    INDEX 01 02:56:34
  TRACK 87 AUDIO
    TITLE "2:cjc151_3160"
    INDEX 01 02:58:13
  TRACK 88 AUDIO
    TITLE "0:"
    INDEX 01 02:59:24
  TRACK 89 AUDIO
    TITLE "3:cjc151_3161"
    INDEX 01 03:01:11
  TRACK 90 AUDIO
    TITLE "0:"
    INDEX 01 03:07:18
